<?xml version="1.0" encoding="utf-8"?>
<!-- Generator: Adobe Illustrator 27.0.0, SVG Export Plug-In . SVG Version: 6.00 Build 0)  -->
<svg version="1.1" xmlns="http://www.w3.org/2000/svg" xmlns:xlink="http://www.w3.org/1999/xlink" x="0px" y="0px"
	 viewBox="0 0 290.2 275.2" style="enable-background:new 0 0 290.2 275.2;" xml:space="preserve">
<style type="text/css">
	.st0{display:none;}
	.st1{display:inline;fill:#4C4C4C;}
	.st2{fill:#FFFFFF;}
</style>
<g id="Layer_3" class="st0">
	<rect x="-73.7" y="-25.2" class="st1" width="404.9" height="322.4"/>
</g>
<g id="Layer_2">
	<path class="st2" d="M101.7,34c-1.9,1.1-3.8,2.1-6.5,3.7c1.8-5.1,4.8-8.3,8.1-12.3c-2.1,0.6-3.6,1.1-5.5,1.6c1.5-3.9,4-6.3,6.5-8.6
		c1.1-1,2.3-1.7,2.4-3.5c0-0.8,1.1-1.6,1.8-2.2c2.6-2,5.2-3.9,7.9-5.9c-0.4-0.2-0.9-0.4-1.7-0.8c0.6-0.5,1-1.2,1.6-1.3
		c3.5-0.8,7-2,10.5-2.2c4.8-0.2,9.7,0.3,14.5,0.7c1.3,0.1,2.8,0.5,3.9,1.2c6.8,4.4,14.6,6.9,21.2,11.8c10.3,7.8,19,16.9,26.5,27.4
		c4.4,6.1,8.8,12.1,13.3,18.1c8.9,11.7,14.1,24.9,15.7,39.5c0.6,5.9,0.7,12,3.6,17.5c0.5,0.9,0.8,1.8,1.5,2.6
		c3.3,4.1,6.4,8.3,7.1,13.8c3.7,0.1,6.3-1.6,8.9-3.3c2.7-1.8,3.8-1.6,5,1.4c0.5,1.1,0.8,2.4,0.8,3.6c0.3,9.7-0.4,19.2-3,28.6
		c-0.8,3-2.1,5.9-4.9,7.8c-1,0.7-1.8,1.8-2.6,2.7c-0.3,0.3-0.5,0.6-0.7,0.9c-3.8,4.3-6.8,4.2-10.3-0.7c-0.8,4.5-1.4,8.8-2.4,13.1
		c-1.2,4.8-2.8,9.6-4.1,14.4c-0.8,2.8-1.5,5.5-2.2,8.3c-3,12.7-8.6,24.3-16.7,34.5c-4.3,5.4-8.1,11.1-10.6,17.5
		c-0.2,0.5-0.5,0.9-0.8,1.5c-2.6,0.2-5.2,0.1-7.7,0.6c-7.4,1.6-14.9,3.3-22.2,5.3c-6.7,1.8-13.6,2-20.4,1.8c-1,0-2-0.3-2.9-0.7
		c-10.3-3.8-20.6-7.5-30.9-11.4c-3.6-1.4-7.2-2.9-10.7-4.6c-7-3.4-10.3-9.1-9.7-16.9c0.1-1.7,0.2-3.5,0.5-5.2
		c0.9-6.1-1-11.9-1.8-17.8c-0.1-0.6-0.4-1.2-0.3-1.8c0.3-7.7-2.2-14.7-4.5-21.9c-2.6-8-3.7-16.3-3.9-24.7c0-0.8-0.2-1.7-0.3-2.7
		c-2,1.1-3.6,2.2-5.4,2.8c-5.5,1.9-8.9-0.3-9.2-6c-0.2-3.8-1.2-7.4-3.1-10.7c-0.9-1.7-1.6-3.6-4.2-3.7c-0.7,0-1.5-1-1.9-1.7
		c-3-4.6-6.3-9.1-8.9-13.9c-2.5-4.6-1.7-9.7-1.2-14.7c0.2-2.4,2.2-3.6,4.1-4.5c8.2-3.6,16.7-5.9,25.8-3.7c0.6,0.1,1.2,0.2,1.9,0.4
		c2.1-2.8,2.3-6.1,3-9.2c2.4-9.7,4.4-19.5,7-29.1c3.4-12.5,9.2-24,16.4-34.7C100.8,35.7,101.2,34.8,101.7,34
		c0.2-0.3,0.5-0.5,0.7-0.8l0.1-0.1l-0.1,0.1C102.2,33.5,102,33.8,101.7,34z M167,242.6c0.2-0.3,0.5-0.5,0.7-0.8
		c5.4-2.1,9.5-5.9,13.6-9.7c5.3-4.8,9.5-10.4,13.1-17.1c-1.7,0.7-2.9,1.2-4.3,1.7c-0.7-3.4-0.2-6.7-3.7-8.6
		c-2.5,3.1-1.1,6.4-0.7,9.9c-1.6,0-3.1,0-5.2,0c1.9,2.1,1.5,4,0.5,5.6c-1.7,2.6-3.7,5-5.6,7.4c-0.7,0.9-1.6,1.5-2.3,2.4
		c-1.9,2.8-3.7,5.6-5.5,8.4C167.5,242.2,167.2,242.4,167,242.6l-0.1,0.1L167,242.6z M178.9,212.6c0.3-0.5,0.5-1,0.8-1.5
		c2.2-3.6,2.3-7.6,1.9-12.4c-0.7,4.7-1.3,8.6-1.9,12.5C179.5,211.6,179.2,212.1,178.9,212.6c0,0.3-0.1,0.5-0.1,0.7
		C178.8,213,178.9,212.8,178.9,212.6z M240.5,139.1c0.5-0.3,1-0.5,1.5-0.8c0.3-0.3,0.5-0.5,0.8-0.8c1.6-0.4,2.2-1.6,2.4-3.1
		c-0.8,1-1.6,2.1-2.3,3.1c-0.3,0.3-0.5,0.5-0.8,0.8C241.5,138.6,241,138.8,240.5,139.1z M226.9,166.1c1-1.3,1.9-1,3.1,0
		c2.1,1.8,4.5,2,6.9,0.4c0.4-0.3,1-0.4,1.6-0.6c0.7,2.3-3.3,3.7-0.5,6.3c3.3-3.2,3.6-7.3,4.4-11.6c-1.2-0.1-2.1-0.2-2.8-0.2
		c-1,1.4-1.6,2.6-2.5,3.6c-2.9,2.9-3.3,2.9-6.7,0.7c-0.8-0.5-1.7-0.8-2.8-1.4C227.3,164.5,227.2,165.3,226.9,166.1
		c-1.3,3.6,0,6.4,2.5,8.7c2.2,2,4.4,1.7,6.4-1.1c-1.5-1-2.9-2.4-4.5-3C228.9,169.9,227.6,168.3,226.9,166.1z M124.2,221.7
		c-0.1-0.2-0.3-0.3-0.4-0.5C123.9,221.4,124.1,221.5,124.2,221.7c0.3,2.5,0.5,5.1,0.7,7.7c-1.5-1.8-2.4-3.8-3.2-5.8
		c-3.9-9.7-4.6-19.8-4.5-30.2c0.1-7.4,1.4-14.3,3.8-21.3c2.9-8.2,8.3-13.8,16.1-17.4c1.7-0.8,3.2-1.1,5-0.1c0.9,0.6,2.2,0.6,3.3,0.9
		c2.5-6.6,3.8-8.2,7.7-9c-2,2.5-4.5,4.8-2.6,7.8c1.3,1.9,3.7,2.3,6.3,1.6c-0.8-1.6-1.5-3-2.2-4.5c3.1-1.4,5.5,0.3,8,1.2
		c2.8,1,3.8,0.6,5.3-1.8c0.4-0.6,0.7-1.3,1.3-2.3c1.7,2.1,3.2,4,4.7,5.8c-1.1-3.8-2.6-7.2-7.3-6.3c-1.5-2.2-1.5-4.4-0.5-6.3
		c2.5-4.7,1.8-8.8-1.2-13.1c-1.8-2.6-2.8-5.8-4-8.6c-2.2,0.6-4.1,1.1-6,1.5c-2,0.4-3.4,1.2-4.2,3.2c-1,2.3-2.4,4.4-3.6,6.6
		c-1.3,2.3-3.2,3.4-5.8,3.3c-3-0.2-6-0.1-8.7,1.5c-0.9,0.5-2,0.4-3.4,0.6c0.8-1.3,1.3-2.2,1.9-3.2c-2.8-2.4-5.9-1.6-8.8-1.6
		c-3,0.1-6,0.2-8.9,0.9c-2.8,0.6-5.5,1.8-8.9,3c-0.1-4.9,1.3-8.5,4.3-11.4c4.8-4.7,10.6-7.9,17-9.9c5.4-1.6,10.8-2,16.2-0.1
		c0.7,0.3,1.5,0.4,2.2,0.7c-1.5-1.7-3.3-2.8-4.7-4.3c-2.3-2.4-1.7-4.6,1.4-5.7c0.9-0.3,1.9-0.5,2.9-0.6c4.2-0.4,7.9,0.8,11.1,3.5
		c0.6-0.2,1-0.4,1.5-0.6c4-1.4,6.4,0.3,5.6,4.3c-0.5,2.6,0.1,4.6,1.6,6.6c2.8,3.7,5.6,7.3,8.4,11.1c3.5,4.8,6.6,4.7,9.9-0.3
		c0.3-0.5,0.7-1.1,0.9-1.7c0.6-2.1,2.2-3.3,4-4.2c5.5-2.9,11.1-2.2,16.8-1c4,0.9,7,3.1,8.7,7c0.9,2.1,1.9,4.1,2.7,6.2
		c0.3,0.7,0.2,1.6,0.4,3c-1.3-1-2-1.7-2.8-2.2c-1.9-1.4-3.8-2.9-5.9-3.9c-1-0.5-2.8-0.4-3.7,0.3c-0.6,0.5-0.7,2.3-0.4,3.4
		c0.9,4,3,7.5,5.8,10.3c2.1,2.1,4.2,4.2,7.4,4.7c5-6.5,4.8-14.2,5.3-21.7c2.9,8.1,2,16.4,1.3,24.2c1.5-4,2.9-8.6,4.9-12.8
		c2.2-4.5,0.9-8.2-1.8-11.8c-0.5-0.7-1.6-1.5-2.4-1.5c-6,0-7.7-4.8-10.5-8.8c2.2-1.3,3.5-0.1,4.9,1.1c1.9,1.7,3.9,3.3,5.8,5
		c0.3-1,0.2-1.6-0.1-2.1c-4.2-8.9-6.2-18.1-5.7-28c0.1-1.5,0.1-3.1-0.3-4.5c-2.9-9.2-6.8-18-12.7-25.7c-1.2-1.6-2.6-3.3-4.2-4.1
		c-2.1-1.1-3.3-2.6-4.3-4.5c-4.4-8.5-10-16.1-16.2-23.4c-4.8-5.7-10.1-10.8-17-13.9c-13.8-6.1-27-4.6-39.5,3.7
		c-10.3,6.9-17.8,16.4-23.1,27.5c-2.8,5.8-5,12-7.1,18.1c-4.2,11.8-7.5,23.8-8.1,36.4c-0.2,4.2-0.3,8.5-3.2,12.1
		c-0.8,1-0.9,2.6-1.4,3.9c-0.6,1.7-1.1,3.3-1.7,4.9c-0.1,0.3-0.6,0.4-1,0.8c-0.3-1-0.5-1.9-0.8-3.1c-1.7,1.3-1.9,2.6-1.1,4.1
		c0.6,1.1,1.3,2.2,1.8,3.3c1.2,2.5,1,4.8-1.3,6.7c-3.4,2.9-3.5,6.3-1.8,10.2c0.4,1,0.8,2,1.2,2.9c-1.9,1.9-3.5,0.8-5,0
		c-1.7-0.9-3.1-2.1-3-4.4c0-2.8,0-5.5-0.1-8.3c0-1.2-0.2-2.4-0.3-4.1c-2.4,2.2-2.3,4.4-2.3,6.6c0,3.5-1.2,6.3-4.9,7.9
		c4.1,4.2,5.1,9.6,6.1,15c5.6-3.3,8.2-8.6,11.7-13.4c0.6,1.6,0.9,3.1,1,4.6c0.1,1.3,0,2.7,0.2,4.1c1.1,6.8,2.2,13.6,3.6,20.3
		c3.2,15.1,6.6,30.2,9.9,45.3c0.5,2.3,0.3,4.3-0.6,6.5c-1.2,2.7-2.2,5.6-2.6,8.5c-0.8,4.7-0.5,9.5,3.8,12.6c7.1,5.2,15,7.5,23.6,5.1
		c2.7-0.8,5.2-1.3,8-0.3c0.8,0.3,2.5,0.1,2.6-0.3c0.3-0.9,0.4-2.4-0.2-3.1c-1.6-2.1-3.4-3.9-5.2-5.8c-0.8-0.8-1.8-1.5-3.1-2.5
		c3-1,5.5-1.8,8.3-2.7c0.3,1.6,0.4,3,0.9,4.4c0.7,2.1,1.5,4.2,2.5,6.2c0.9,1.7,2.5,2.5,4.5,2c2.1-0.5,2.4-2.3,2.6-4.1
		c0.3-4.4-0.6-8.4-2.9-12.2C130.7,232.6,127.4,227.2,124.2,221.7z M131.1,205.9c0,0.5-0.1,1,0,1.5c1.7,8.5,3.5,17.1,5.3,25.6
		c0.2,0.8,0.5,1.7,0.8,2.5c1.4,3.9,3,4.8,6.8,3.5c2.1-0.7,4.4-1.5,6-2.9c3.7-3.2,7.3-4.9,12.2-2.8c0.8,0.4,2,0.1,3,0.1
		c0.6,0,1.2-0.2,1.8-0.5c1.5-0.7,2.3-2,1.9-3.6c-0.4-1.5-1.7-1.5-3.1-1.4c-0.9,0.1-1.8,0.3-2.6,0c-4.8-2-10-1.9-15.1-2.4
		c-1.8-0.2-3.7-0.8-5.3-1.7c-2.6-1.5-2.4-3.6,0.3-5c1.1-0.6,2.1-1.3,3.4-2.1C141.1,213.1,134.5,212,131.1,205.9z M164.3,170.6
		c-1.3-2.2-3.2-2.3-5.2-1.9c-1.6,0.3-3.1,0.9-4.7,1.3c-2.6,0.5-4.1-0.7-4-3.4c0-0.7,0.3-1.4,0.4-2c-2.8-1.7-5.5-3.3-8.2-4.9
		c-5.4,4.7-8.2,10.5-9.3,17.2c5-4.7,10.8-6.6,17.5-6.3C155.3,170.7,159.8,170.6,164.3,170.6z M202.2,164.6c2,2.4,4.1,2.3,6.2,1.9
		c1.5-0.3,2.9-0.9,4.4-0.9c1.7,0,3.7-0.3,5.1,1.8c-2.2,1.6-4.2,3.3-4,6.7c1.9-1.8,3-4.3,6.1-5c-0.7,3.2-1.3,6.1-1.9,8.9
		c0.2,0.1,0.4,0.3,0.6,0.4c0.4-0.8,0.7-1.5,1.1-2.3c0.3,0.1,0.6,0.2,0.9,0.3c0.7,2.5,1.4,4.9,2.3,7.7c0.9-3.8,1.7-7.4,0-10.7
		c-1.9-3.8-1.9-7.7-1.7-11.7c0.1-1.7,0.3-3.3,0.3-4.3c-1.5,2.1-3.3,4.6-5.1,7.1c-2.5-0.8-4.7-2.1-6.8-2.1
		C207.3,162.4,205,163.7,202.2,164.6z M162.8,208.8c-0.4-0.3-0.5-0.4-0.6-0.4c-6.8-0.4-13.6-0.9-20.2-2.9c-0.9-0.3-2.1,0.4-3.6,0.7
		c1.9,2.3,3.2,4.3,5,5.8c0.6,0.5,2.9,0.2,3.2-0.4c1.3-2.3,2.8-1.7,4.7-1.3c3,0.6,6.1,1,9.2,1.2C162,211.7,163.6,211.1,162.8,208.8z
		 M171.3,141.5c1.2,2.5,2.4,5.1,3.5,7.6c1.1,2.5,2.1,5.2,4.8,7c0.4-1.4,0.7-2.4,1.2-4.2c2,2.4,3.6,4.4,5.1,6.3
		C186.2,151.9,178.9,143.6,171.3,141.5z M167,169.8c3.7,1.6,6.6,4.3,10.8,5.4c-0.9-3.8-3.2-6-5.7-7.8
		C169.5,165.5,168.7,165.9,167,169.8z M154.4,185.4c0.5-3.5-0.1-4.5-3.6-6.2c-1.8,1.7-2.4,3.6-1.6,5.1
		C150.1,185.9,151.8,186.3,154.4,185.4z M63.6,112.2c-2.1-0.3-3.7-0.9-5.2-0.7c-3.8,0.7-7.5,1.6-11.2,2.6c-2.8,0.8-4,2.9-3.8,6.1
		c1.4-3.4,3.6-5.5,6.8-6.5c3-0.9,6.1-1.1,9.2-0.1C60.8,114.2,62,114.3,63.6,112.2z M144.7,182.7c-1.7-1.1-2.6-2-3.6-2.2
		c-1.6-0.3-2.1,1.1-2.2,2.4c-0.1,1.3,0.9,2.1,2.2,1.9C142.1,184.5,143,183.7,144.7,182.7z M167.3,206.6c-1.3,1.7-1.3,3,0.4,4.6
		c0.7-0.9,1.4-1.6,2.2-2.6C168.9,207.8,168.2,207.2,167.3,206.6z M127.5,128.3c0.1,0.5,0.2,1,0.3,1.5c0.9-0.2,1.9-0.3,2.8-0.5
		c-0.1-0.5-0.3-1.5-0.4-1.5C129.3,127.8,128.4,128.1,127.5,128.3z M192,150.7c-0.2-0.2-0.4-0.3-0.5-0.4c-0.1,0-0.3,0-0.3,0
		c0,0.2,0,0.3,0,0.5C191.3,150.9,191.6,150.8,192,150.7z M43.6,127.5l-0.1,0.3l0.2,0L43.6,127.5z M151.3,213.8l0-0.2l-0.3,0.1
		L151.3,213.8z"/>
</g>
</svg>
